<mxfile host="app.diagrams.net" agent="Mozilla/5.0 (Macintosh; Intel Mac OS X 10_15_7) AppleWebKit/537.36 (KHTML, like Gecko) Chrome/137.0.0.0 Safari/537.36" version="27.2.0">
  <diagram name="第 1 页" id="l2xmVvCSGy6pb4uyQ1Hw">
    <mxGraphModel dx="1174" dy="790" grid="1" gridSize="10" guides="1" tooltips="1" connect="1" arrows="1" fold="1" page="1" pageScale="1" pageWidth="827" pageHeight="1169" math="0" shadow="0">
      <root>
        <mxCell id="0" />
        <mxCell id="1" parent="0" />
        <mxCell id="v96ChkmiKD7GrPeNRG_l-1" value="采购管理" style="ellipse;whiteSpace=wrap;html=1;" vertex="1" parent="1">
          <mxGeometry x="170" y="260" width="170" height="60" as="geometry" />
        </mxCell>
        <mxCell id="v96ChkmiKD7GrPeNRG_l-2" value="销售管理" style="ellipse;whiteSpace=wrap;html=1;" vertex="1" parent="1">
          <mxGeometry x="610" y="260" width="160" height="60" as="geometry" />
        </mxCell>
        <mxCell id="v96ChkmiKD7GrPeNRG_l-3" value="存货管理" style="ellipse;whiteSpace=wrap;html=1;" vertex="1" parent="1">
          <mxGeometry x="380" y="480" width="170" height="60" as="geometry" />
        </mxCell>
        <mxCell id="v96ChkmiKD7GrPeNRG_l-4" value="" style="endArrow=open;startArrow=open;endFill=0;startFill=0;html=1;rounded=0;curved=0;exitX=1;exitY=0.5;exitDx=0;exitDy=0;" edge="1" parent="1" source="v96ChkmiKD7GrPeNRG_l-7">
          <mxGeometry width="160" relative="1" as="geometry">
            <mxPoint x="510" y="320" as="sourcePoint" />
            <mxPoint x="670" y="320" as="targetPoint" />
          </mxGeometry>
        </mxCell>
        <mxCell id="v96ChkmiKD7GrPeNRG_l-7" value="中介者" style="ellipse;whiteSpace=wrap;html=1;" vertex="1" parent="1">
          <mxGeometry x="369" y="340" width="170" height="60" as="geometry" />
        </mxCell>
        <mxCell id="v96ChkmiKD7GrPeNRG_l-8" value="" style="endArrow=open;startArrow=open;endFill=0;startFill=0;html=1;rounded=0;curved=0;exitX=0.5;exitY=0;exitDx=0;exitDy=0;" edge="1" parent="1" source="v96ChkmiKD7GrPeNRG_l-3">
          <mxGeometry width="160" relative="1" as="geometry">
            <mxPoint x="330" y="450" as="sourcePoint" />
            <mxPoint x="461" y="400" as="targetPoint" />
          </mxGeometry>
        </mxCell>
        <mxCell id="v96ChkmiKD7GrPeNRG_l-9" value="" style="endArrow=open;startArrow=open;endFill=0;startFill=0;html=1;rounded=0;curved=0;exitX=0;exitY=0.5;exitDx=0;exitDy=0;" edge="1" parent="1" source="v96ChkmiKD7GrPeNRG_l-7">
          <mxGeometry width="160" relative="1" as="geometry">
            <mxPoint x="274" y="400" as="sourcePoint" />
            <mxPoint x="270" y="320" as="targetPoint" />
          </mxGeometry>
        </mxCell>
      </root>
    </mxGraphModel>
  </diagram>
</mxfile>
